<svg xmlns="http://www.w3.org/2000/svg" viewBox="0 0 100 100">
  <circle cx="50" cy="50" r="48" fill="#2a4a6a"/>
  <rect x="20" y="30" width="60" height="50" rx="8" fill="#3a6a9a"/>
  <rect x="30" y="40" width="16" height="12" rx="3" fill="#39ff14"/>
  <rect x="54" y="40" width="16" height="12" rx="3" fill="#39ff14"/>
  <rect x="34" y="43" width="8" height="6" rx="1" fill="#1a3a2a"/>
  <rect x="58" y="43" width="8" height="6" rx="1" fill="#1a3a2a"/>
  <rect x="35" y="60" width="30" height="6" rx="3" fill="#1a3a5a"/>
  <rect x="40" y="62" width="4" height="2" rx="1" fill="#39ff14"/>
  <rect x="48" y="62" width="4" height="2" rx="1" fill="#ffe033"/>
  <rect x="56" y="62" width="4" height="2" rx="1" fill="#ff4444"/>
  <rect x="42" y="22" width="16" height="10" rx="3" fill="#3a6a9a"/>
  <circle cx="50" cy="22" r="4" fill="#39ff14"/>
  <rect x="12" y="42" width="8" height="20" rx="4" fill="#3a6a9a"/>
  <rect x="80" y="42" width="8" height="20" rx="4" fill="#3a6a9a"/>
</svg>
